<svg xmlns="http://www.w3.org/2000/svg" xmlns:xlink="http://www.w3.org/1999/xlink" preserveAspectRatio="xMidYMid" width="96.5" height="36.531" viewBox="0 0 96.5 36.531">
  <defs>
    <style>
      .cls-1 {
        fill: #000;
      }

      .cls-1, .cls-2, .cls-3 {
        fill-rule: evenodd;
      }

      .cls-2 {
        fill: #50c5da;
      }

      .cls-3 {
        fill: #fff;
      }
    </style>
  </defs>
  <g>
    <path d="M46.525,21.342 C47.541,21.698 48.423,22.181 49.170,22.793 C49.917,23.404 50.507,24.144 50.941,25.011 C51.374,25.879 51.591,26.846 51.591,27.913 C51.591,29.051 51.431,30.057 51.111,30.931 C50.791,31.806 50.347,32.560 49.778,33.193 C49.209,33.826 48.537,34.355 47.762,34.782 C46.987,35.209 46.155,35.554 45.266,35.817 C44.377,36.080 43.442,36.265 42.461,36.371 C41.479,36.478 40.491,36.531 39.495,36.531 L27.570,36.531 L27.570,35.294 L30.514,34.547 C30.770,34.476 30.987,34.338 31.165,34.131 C31.342,33.925 31.431,33.666 31.431,33.353 L31.431,9.822 C31.431,9.509 31.342,9.253 31.165,9.054 C30.987,8.855 30.770,8.720 30.514,8.649 L27.570,7.881 L27.570,6.665 L38.855,6.665 C41.031,6.665 42.820,6.850 44.221,7.219 C45.621,7.589 46.720,8.083 47.517,8.702 C48.313,9.321 48.864,10.025 49.170,10.814 C49.476,11.603 49.629,12.425 49.629,13.278 C49.629,14.217 49.479,15.084 49.181,15.881 C48.882,16.677 48.455,17.388 47.901,18.014 C47.346,18.640 46.670,19.177 45.874,19.625 C45.077,20.073 44.196,20.425 43.229,20.681 L43.229,20.723 C44.409,20.780 45.508,20.987 46.525,21.342 ZM43.613,18.814 C44.224,18.352 44.661,17.790 44.925,17.129 C45.188,16.467 45.319,15.717 45.319,14.878 C45.319,13.769 45.177,12.819 44.893,12.030 C44.608,11.241 44.174,10.594 43.591,10.089 C43.008,9.584 42.279,9.211 41.405,8.969 C40.530,8.727 39.495,8.606 38.301,8.606 L35.527,8.606 L35.527,20.254 L37.575,20.254 C39.012,20.254 40.224,20.130 41.213,19.881 C42.201,19.632 43.001,19.276 43.613,18.814 ZM42.685,22.462 C41.668,22.227 40.448,22.110 39.026,22.110 L35.527,22.110 L35.527,34.569 L40.157,34.569 C42.475,34.569 44.210,34.110 45.362,33.193 C46.514,32.275 47.090,30.786 47.090,28.723 C47.090,27.500 46.937,26.469 46.631,25.630 C46.325,24.791 45.845,24.112 45.191,23.593 C44.537,23.074 43.701,22.697 42.685,22.462 ZM22.194,33.193 C21.625,33.826 20.953,34.355 20.178,34.782 C19.403,35.209 18.571,35.554 17.682,35.817 C16.793,36.080 15.858,36.265 14.877,36.371 C13.896,36.478 12.907,36.531 11.912,36.531 L-0.014,36.531 L-0.014,35.294 L2.930,34.547 C3.186,34.476 3.403,34.338 3.581,34.131 C3.759,33.925 3.848,33.666 3.848,33.353 L3.848,9.822 C3.848,9.509 3.759,9.253 3.581,9.054 C3.403,8.855 3.186,8.720 2.930,8.649 L-0.014,7.881 L-0.014,6.665 L11.272,6.665 C13.448,6.665 15.236,6.850 16.637,7.219 C18.038,7.589 19.136,8.083 19.933,8.702 C20.729,9.321 21.280,10.025 21.586,10.814 C21.892,11.603 22.045,12.425 22.045,13.278 C22.045,14.217 21.896,15.084 21.597,15.881 C21.298,16.677 20.872,17.388 20.317,18.014 C19.762,18.640 19.087,19.177 18.290,19.625 C17.494,20.073 16.612,20.425 15.645,20.681 L15.645,20.723 C16.825,20.780 17.924,20.987 18.941,21.342 C19.958,21.698 20.840,22.181 21.586,22.793 C22.333,23.404 22.923,24.144 23.357,25.011 C23.791,25.879 24.008,26.846 24.008,27.913 C24.008,29.051 23.848,30.057 23.528,30.931 C23.208,31.806 22.763,32.560 22.194,33.193 ZM16.029,18.814 C16.640,18.352 17.078,17.790 17.341,17.129 C17.604,16.467 17.736,15.717 17.736,14.878 C17.736,13.769 17.593,12.819 17.309,12.030 C17.024,11.241 16.591,10.594 16.008,10.089 C15.424,9.584 14.696,9.211 13.821,8.969 C12.946,8.727 11.912,8.606 10.717,8.606 L7.944,8.606 L7.944,20.254 L9.992,20.254 C11.428,20.254 12.640,20.130 13.629,19.881 C14.617,19.632 15.417,19.276 16.029,18.814 ZM19.048,25.630 C18.742,24.791 18.262,24.112 17.608,23.593 C16.953,23.074 16.118,22.697 15.101,22.462 C14.084,22.227 12.864,22.110 11.442,22.110 L7.944,22.110 L7.944,34.569 L12.573,34.569 C14.891,34.569 16.626,34.110 17.778,33.193 C18.930,32.275 19.506,30.786 19.506,28.723 C19.506,27.500 19.353,26.469 19.048,25.630 Z" class="cls-1"/>
    <path d="M87.034,6.232 C87.034,9.402 85.556,11.642 83.959,13.829 C83.603,14.321 84.077,14.647 84.491,14.265 C85.556,13.281 87.034,12.024 90.347,12.024 C93.896,12.024 96.499,14.867 96.499,20.331 C96.499,26.235 92.596,30.606 88.218,30.606 C83.959,30.606 79.877,26.998 78.694,24.649 C78.279,23.829 77.925,23.283 77.510,23.283 C77.215,23.283 77.097,23.610 77.097,24.048 C77.097,28.968 79.344,33.574 81.937,34.876 C82.020,34.918 82.710,35.507 81.437,35.759 C80.390,35.969 73.477,36.473 71.222,35.158 C70.931,34.988 71.230,34.621 71.518,34.556 C75.115,33.742 75.855,26.343 75.855,23.502 C75.855,23.064 75.736,22.736 75.382,22.736 C74.967,22.736 74.731,23.120 74.494,23.556 C73.134,26.125 69.999,29.512 65.266,29.512 C60.534,29.512 56.984,24.484 56.984,19.676 C56.984,14.867 59.824,10.932 63.847,10.932 C66.212,10.932 68.698,12.353 70.234,13.228 C70.650,13.446 70.945,13.008 70.531,12.735 C67.987,11.041 67.159,9.073 67.159,6.123 C67.159,4.155 69.289,0.002 76.860,0.002 C84.432,0.002 87.034,2.734 87.034,6.232 Z" class="cls-2"/>
    <path d="M79.093,4.957 C81.213,6.258 81.878,9.032 80.576,11.152 C79.275,13.273 76.501,13.937 74.381,12.636 C72.260,11.334 71.596,8.561 72.897,6.440 C74.199,4.320 76.972,3.655 79.093,4.957 Z" class="cls-3"/>
  </g>
</svg>
