<svg xmlns="http://www.w3.org/2000/svg" xmlns:xlink="http://www.w3.org/1999/xlink" preserveAspectRatio="xMidYMid" width="28" height="28" viewBox="0 0 28 28">
  <defs>
    <style>
      .cls-1 {
        fill: #50c5da;
        stroke: #ddd;
        stroke-linejoin: round;
        stroke-width: 1px;
        fill-rule: evenodd;
      }
    </style>
  </defs>
  <path d="M23.353,23.671 C22.646,24.348 21.521,24.324 20.845,23.616 L14.714,17.210 C14.280,16.758 14.134,16.135 14.271,15.568 C13.149,16.366 11.805,16.781 10.400,16.750 C8.675,16.713 7.070,16.007 5.881,14.763 C4.690,13.520 4.055,11.887 4.092,10.163 C4.129,8.438 4.835,6.832 6.079,5.641 C8.649,3.182 12.741,3.272 15.201,5.841 C17.434,8.175 17.565,11.763 15.648,14.244 C16.222,14.130 16.840,14.302 17.276,14.757 L23.409,21.163 C24.085,21.871 24.061,22.994 23.353,23.671 ZM15.036,10.401 C15.063,9.199 14.620,8.060 13.790,7.193 C12.076,5.401 9.222,5.338 7.429,7.052 C5.637,8.769 5.575,11.622 7.290,13.412 C9.004,15.205 11.858,15.268 13.651,13.553 C14.518,12.723 15.010,11.604 15.036,10.401 Z" class="cls-1"/>
</svg>
